<?xml version="1.0" standalone="no"?>
<!DOCTYPE svg PUBLIC "-//W3C//DTD SVG 20010904//EN"
 "http://www.w3.org/TR/2001/REC-SVG-20010904/DTD/svg10.dtd">
<svg version="1.0" xmlns="http://www.w3.org/2000/svg"
 width="158.000000pt" height="136.000000pt" viewBox="0 0 158.000000 136.000000"
 preserveAspectRatio="xMidYMid meet">

<g transform="translate(0.000000,136.000000) scale(0.100000,-0.100000)"
fill="#000000" stroke="none">
<path d="M305 1090 c-3 -6 5 -39 19 -74 14 -36 26 -78 26 -95 0 -33 -43 -178
-67 -226 -20 -40 -72 -95 -101 -106 -15 -6 -22 -16 -20 -27 3 -14 17 -17 97
-20 84 -2 100 0 147 23 72 35 117 88 144 171 13 38 29 78 37 90 18 29 -5 51
-36 34 -18 -9 -17 -4 8 37 21 35 30 66 34 111 6 68 1 73 -49 47 -17 -9 -56
-15 -95 -15 -60 0 -68 3 -94 30 -31 32 -40 36 -50 20z m228 -147 c-21 -43 -94
-103 -126 -103 -21 0 -22 5 -22 79 l0 80 40 -5 c22 -3 58 -1 80 3 49 11 55 -1
28 -54z m-16 -157 c-3 -8 -11 -33 -17 -56 -6 -22 -24 -55 -40 -74 -37 -41
-119 -78 -165 -74 l-35 3 28 34 c15 19 38 64 52 100 l26 66 59 6 c33 3 68 6
79 7 12 1 16 -3 13 -12z"/>
<path d="M1255 1000 c-11 -5 -59 -7 -107 -3 -126 8 -142 -12 -70 -89 44 -48
82 -31 46 20 -14 21 -14 22 11 22 34 0 39 -16 30 -115 -6 -77 -8 -84 -27 -82
-31 3 -32 -16 -3 -47 29 -31 28 -25 14 -100 -6 -34 -7 -62 -2 -67 12 -12 153
60 153 78 0 7 -20 28 -45 45 l-45 32 0 128 c0 120 1 128 19 128 11 0 27 3 36
6 14 6 14 3 -1 -30 -13 -26 -15 -39 -7 -47 16 -16 30 -4 59 52 20 40 23 54 13
65 -13 16 -44 17 -74 4z m-33 -375 c0 -5 -5 -11 -11 -13 -6 -2 -11 4 -11 13 0
9 5 15 11 13 6 -2 11 -8 11 -13z"/>
<path d="M859 958 c-6 -24 -27 -71 -46 -105 l-35 -63 -68 0 c-77 0 -100 -6
-100 -26 0 -16 24 -28 88 -44 23 -6 42 -13 42 -16 0 -14 -43 -104 -50 -104 -5
0 -17 16 -29 35 -21 37 -38 44 -47 21 -10 -25 53 -126 78 -126 13 0 88 122 88
143 0 23 22 22 98 -4 57 -19 65 -25 87 -69 14 -27 30 -52 37 -56 16 -10 89 75
86 101 -2 15 -14 21 -53 28 -31 5 -57 16 -67 28 -25 30 -22 49 7 49 23 0 24
-2 13 -20 -9 -14 -9 -23 -2 -30 8 -8 25 -3 60 20 27 17 49 34 49 39 0 15 -110
108 -122 104 -18 -6 -16 -28 2 -43 23 -19 18 -32 -12 -28 -27 3 -28 5 -36 83
-12 116 -15 125 -37 125 -14 0 -22 -11 -31 -42z m26 -155 c-2 -7 -16 -13 -30
-13 l-26 0 23 41 23 40 7 -28 c4 -15 6 -34 3 -40z m15 -73 c12 -23 10 -24 -41
-8 -48 14 -50 28 -4 28 24 0 37 -6 45 -20z m130 -104 c0 -11 -19 -15 -25 -6
-3 5 1 10 9 10 9 0 16 -2 16 -4z"/>
<path d="M85 590 c-7 -12 2 -30 16 -30 5 0 9 9 9 20 0 21 -15 27 -25 10z"/>
</g>
</svg>
